<svg width="0" height="0" class="hidden">
  <symbol version="1.1" xmlns="http://www.w3.org/2000/svg" viewBox="0 0 32 32" id="nextdoor">
    <path fill="#8bc94d" d="M3.333 5c-0.552 0-1 0.448-1 1v4c0 3.13 2.537 5.667 5.667 5.667h1v10.333c0 0.552 0.448 1 1 1h5.333c0.552 0 1-0.448 1-1v-10.667c0-1.657 1.343-3 3-3s3 1.343 3 3v10.667c0 0.552 0.448 1 1 1h5.333c0.552 0 1-0.448 1-1v-10.667c0-5.707-4.626-10.333-10.333-10.333-3.616 0-6.797 1.858-8.642 4.667h-0.024c-0.552 0-1-0.448-1-1v-2.667c0-0.552-0.448-1-1-1h-5.333z"></path>
  </symbol>
  <symbol version="1.1" xmlns="http://www.w3.org/2000/svg" viewBox="0 0 32 32" id="quotes-left">
    <path d="M7.031 14c3.866 0 7 3.134 7 7s-3.134 7-7 7-7-3.134-7-7l-0.031-1c0-7.732 6.268-14 14-14v4c-2.671 0-5.182 1.040-7.071 2.929-0.364 0.364-0.695 0.751-0.995 1.157 0.357-0.056 0.724-0.086 1.097-0.086zM25.031 14c3.866 0 7 3.134 7 7s-3.134 7-7 7-7-3.134-7-7l-0.031-1c0-7.732 6.268-14 14-14v4c-2.671 0-5.182 1.040-7.071 2.929-0.364 0.364-0.695 0.751-0.995 1.157 0.358-0.056 0.724-0.086 1.097-0.086z"></path>
  </symbol>
  <symbol version="1.1" xmlns="http://www.w3.org/2000/svg" viewBox="0 0 32 32" id="marker">
    <path d="M16 0.056c-7.346 0.008-13.299 5.961-13.308 13.306v0.001c0 3.427 2.653 8.789 7.887 15.939 1.235 1.678 3.202 2.755 5.421 2.755s4.186-1.077 5.408-2.736l0.013-0.019c5.233-7.149 7.887-12.512 7.887-15.939-0.009-7.346-5.962-13.298-13.307-13.307h-0.001zM16 18.667c-2.946 0-5.333-2.388-5.333-5.333s2.388-5.333 5.333-5.333c2.946 0 5.333 2.388 5.333 5.333v0c0 2.946-2.388 5.333-5.333 5.333v0z"></path>
  </symbol>
  <symbol version="1.1" xmlns="http://www.w3.org/2000/svg" viewBox="0 0 32 32" id="whatsapp">
    <path d="M27.284 4.651c-2.995-2.997-6.976-4.649-11.217-4.651-8.74 0-15.853 7.112-15.857 15.856-0.001 2.795 0.729 5.523 2.117 7.928l-2.251 8.216 8.405-2.205c2.316 1.264 4.924 1.929 7.577 1.931h0.007c8.739 0 15.853-7.113 15.857-15.857 0.003-4.236-1.645-8.221-4.639-11.217zM16.067 29.047h-0.005c-2.365 0-4.684-0.636-6.708-1.837l-0.481-0.285-4.988 1.308 1.332-4.864-0.313-0.499c-1.32-2.099-2.016-4.524-2.015-7.013 0.003-7.267 5.916-13.179 13.185-13.179 3.52 0 6.829 1.373 9.317 3.864 2.488 2.492 3.857 5.803 3.856 9.324-0.004 7.269-5.916 13.181-13.18 13.181zM23.296 19.176c-0.396-0.199-2.344-1.157-2.708-1.289-0.363-0.132-0.627-0.199-0.892 0.197s-1.023 1.289-1.255 1.555c-0.231 0.264-0.463 0.297-0.859 0.099s-1.673-0.616-3.187-1.967c-1.177-1.051-1.973-2.348-2.204-2.745s-0.024-0.611 0.173-0.808c0.179-0.177 0.396-0.463 0.595-0.695 0.2-0.229 0.265-0.395 0.399-0.66 0.132-0.264 0.067-0.496-0.033-0.695-0.1-0.197-0.892-2.148-1.221-2.941-0.321-0.773-0.648-0.668-0.892-0.68-0.231-0.012-0.495-0.013-0.76-0.013-0.264 0-0.693 0.099-1.056 0.496s-1.387 1.356-1.387 3.305c0 1.951 1.42 3.835 1.617 4.099s2.793 4.267 6.768 5.983c0.945 0.408 1.684 0.652 2.259 0.835 0.949 0.301 1.813 0.259 2.496 0.157 0.761-0.113 2.344-0.959 2.675-1.884s0.331-1.72 0.231-1.884c-0.099-0.167-0.363-0.265-0.759-0.464z"></path>
  </symbol>
  <symbol version="1.1" xmlns="http://www.w3.org/2000/svg" viewBox="0 0 32 32" id="facebook">
    <path d="M32 16.097c0 7.985-5.859 14.605-13.507 15.807v-11.151h3.719l0.708-4.613h-4.427v-2.993c0-1.263 0.619-2.492 2.6-2.492h2.012v-3.928c0 0-1.827-0.312-3.572-0.312-3.645 0-6.027 2.209-6.027 6.208v3.516h-4.052v4.613h4.052v11.151c-7.647-1.203-13.507-7.821-13.507-15.805 0-8.836 7.164-16 16-16s16 7.163 16 16z"></path>
  </symbol>
  <symbol version="1.1" xmlns="http://www.w3.org/2000/svg" viewBox="0 0 32 32" id="burger">
    <path d="M25.333 6.667h-25.333v-2.667h25.333v2.667zM0 28h25.333v-2.667h-25.333v2.667zM6.667 14.667v2.667h25.333v-2.667h-25.333z"></path>
  </symbol>
  <symbol version="1.1" xmlns="http://www.w3.org/2000/svg" viewBox="0 0 32 32" id="circle-xmark">
    <path d="M16 0c-8.823 0-16 7.177-16 16s7.177 16 16 16 16-7.177 16-16-7.177-16-16-16zM22.276 20.391l-1.885 1.885-4.391-4.391-4.391 4.391-1.885-1.885 4.391-4.391-4.391-4.391 1.885-1.885 4.391 4.391 4.391-4.391 1.885 1.885-4.391 4.391 4.391 4.391z"></path>
  </symbol>
  <symbol version="1.1" xmlns="http://www.w3.org/2000/svg" viewBox="0 0 32 32" id="mower">
    <path d="M5.333 14.312c3.869-1.859 8.377 2 8.377 2l-2.36 2.355c-1.145-1.147-3.153-3.779-6.019-4.355zM18.667 5.351c-4.279-0.351-7.108 4.864-7.108 4.864l3.045 1.355c0.659-1.481 1.593-4.657 4.063-6.219zM9.445 29.333c-0.055-1.736-0.032-4.119 1.221-6-2.663 0.932-3.772 3.8-4.223 5.661-0.401-2.229-1.485-6.011-4.295-6.995 1.035 1.552 1.229 3.989 1.236 5.975-0.669-1.38-1.717-2.724-3.385-3.308 0.956 1.435 1.195 3.159 1.231 4.667h-1.231v2.667h32v-2.667h-22.555zM29.493 2.667l-3.2 16h2.081l1.021 4.085c1.489 0.333 2.604 1.659 2.604 3.248 0 1.841-1.492 3.333-3.333 3.333-1.612 0-2.957-1.145-3.267-2.667h-6.801c-0.309 1.521-1.653 2.667-3.267 2.667-1.841 0-3.333-1.492-3.333-3.333s1.492-3.333 3.333-3.333c0.084 0 0.161 0.019 0.244 0.024l0.509-1.341c0.527-1.584 2.051-2.684 3.776-2.684h3.712l3.735-18.665h4.692v2.667h-2.507zM18.599 22.243l-0.651 1.713c0.012 0.015 0.024 0.028 0.036 0.044h8.031c0.215-0.284 0.465-0.537 0.759-0.74l-0.481-1.927h-6.429c-0.576 0-1.083 0.365-1.263 0.909z"></path>
  </symbol>
  <symbol version="1.1" xmlns="http://www.w3.org/2000/svg" viewBox="0 0 32 32" id="wrench-alt">
    <path d="M31.649 7.307c-0.175-0.609-1.501-1.573-2.595-0.48s-4.421 4.421-4.421 4.421c-1.049 1.049-2.765 1.019-3.804-0.048-1.065-1.039-1.099-2.756-0.049-3.805 0 0 3.328-3.328 4.421-4.421s0.129-2.42-0.48-2.595c-0.997-0.285-2.031-0.411-3.089-0.372-5.031 0.179-9.271 4.265-9.609 9.287-0.060 0.887-0.007 1.756 0.156 2.6 0.243 1.253-0.217 2.54-1.12 3.444l-9.899 9.871c-1.549 1.551-1.54 4.079-0.009 5.641 1.563 1.532 4.091 1.541 5.641-0.008l9.899-9.872c0.903-0.903 2.189-1.363 3.444-1.12 0.844 0.163 1.713 0.216 2.6 0.156 5.023-0.339 9.108-4.579 9.287-9.609 0.037-1.059-0.087-2.092-0.372-3.089z"></path>
  </symbol>
  <symbol version="1.1" xmlns="http://www.w3.org/2000/svg" viewBox="0 0 32 32" id="hand-holding-seeding">
    <path d="M5.337 1.664c-0.067-0.936 0.724-1.727 1.66-1.66 5.985 0.421 8.681 3.201 9.003 9.329 0.321-6.128 3.017-8.908 9.003-9.329 0.935-0.065 1.725 0.724 1.66 1.66-0.421 5.985-3.209 8.648-9.336 8.969 0 0.012 0.007 0.023 0.007 0.035v2.667c-0.007 1.744-2.66 1.743-2.667 0v-2.667c0-0.012 0.007-0.023 0.007-0.035-6.128-0.321-8.915-2.984-9.336-8.969zM31.259 17.677c-0.695-0.964-1.764-1.571-2.937-1.664-1.167-0.101-2.32 0.328-3.108 1.119l-2.596 2.381c0.379 3.087-2.199 5.84-5.284 5.82h-5.333c-1.744-0.007-1.743-2.66 0-2.667h5.333c3.505-0.064 3.503-5.271 0-5.333h-5.216c-3.917 0-7.6 1.527-10.396 4.32l-1.356 1.428c-0.235 0.248-0.365 0.577-0.365 0.917v6.667c0 0.737 0.596 1.333 1.333 1.333h13.76c3.661 0 7.169-1.359 9.877-3.824l5.757-5.247c1.427-1.431 1.655-3.688 0.529-5.252z"></path>
  </symbol>
  <symbol version="1.1" xmlns="http://www.w3.org/2000/svg" viewBox="0 0 32 32" id="phone-call">
    <path d="M30.667 14.667c-0.736 0-1.333-0.597-1.333-1.333v0c-0.006-5.889-4.778-10.661-10.666-10.667h-0.001c-0.736 0-1.333-0.597-1.333-1.333s0.597-1.333 1.333-1.333v0c7.36 0.008 13.325 5.973 13.333 13.333v0.001c0 0.736-0.597 1.333-1.333 1.333v0zM26.667 13.333c0-4.418-3.582-8-8-8v0c-0.736 0-1.333 0.597-1.333 1.333s0.597 1.333 1.333 1.333v0c2.946 0 5.333 2.388 5.333 5.333v0c0 0.736 0.597 1.333 1.333 1.333s1.333-0.597 1.333-1.333v0zM29.577 29.552l1.213-1.399c0.745-0.747 1.206-1.779 1.206-2.918s-0.461-2.171-1.206-2.918l0 0c-0.041-0.041-3.249-2.509-3.249-2.509-0.74-0.705-1.744-1.14-2.85-1.14-1.11 0-2.117 0.437-2.86 1.149l0.001-0.001-2.541 2.141c-4.203-1.771-7.479-5.052-9.201-9.146l-0.042-0.112 2.133-2.533c0.711-0.741 1.149-1.749 1.149-2.86 0-1.106-0.434-2.11-1.141-2.851l0.002 0.002s-2.471-3.204-2.512-3.245c-0.745-0.749-1.776-1.213-2.915-1.213-1.109 0-2.115 0.439-2.854 1.153l0.001-0.001-1.533 1.333c-9.059 10.509 10.448 29.865 21.304 29.517 0.014 0 0.031 0 0.048 0 2.288 0 4.358-0.936 5.846-2.447l0.001-0.001z"></path>
  </symbol>
  <symbol version="1.1" xmlns="http://www.w3.org/2000/svg" viewBox="0 0 32 32" id="comment-1">
    <path d="M32 15.079v16.921h-15.976c-8.833-0.004-15.992-7.166-15.992-16 0-8.837 7.163-16 16-16 8.483 0 15.424 6.601 15.966 14.947l0.002 0.047zM17.333 9.333h-8v2.667h8zM22.667 14.667h-13.333v2.667h13.333zM22.667 20h-13.333v2.667h13.333z"></path>
  </symbol>
  <symbol version="1.1" xmlns="http://www.w3.org/2000/svg" viewBox="0 0 32 32" id="circle-user">
    <path d="M21.333 31.085c-1.669 0.592-3.464 0.915-5.333 0.915s-3.664-0.323-5.333-0.915v-3.085c0-2.941 2.392-5.333 5.333-5.333s5.333 2.392 5.333 5.333v3.085zM16 9.333c-1.471 0-2.667 1.196-2.667 2.667s1.196 2.667 2.667 2.667 2.667-1.196 2.667-2.667-1.196-2.667-2.667-2.667zM32 16c0 5.911-3.221 11.081-8 13.852v-1.852c0-4.412-3.588-8-8-8s-8 3.588-8 8v1.852c-4.779-2.771-8-7.941-8-13.852 0-8.823 7.177-16 16-16s16 7.177 16 16zM21.333 12c0-2.941-2.392-5.333-5.333-5.333s-5.333 2.392-5.333 5.333 2.392 5.333 5.333 5.333 5.333-2.392 5.333-5.333z"></path>
  </symbol>
</svg>

